<mxfile host="app.diagrams.net" modified="2023-11-07T23:46:48.428Z" agent="Mozilla/5.0 (Windows NT 10.0; Win64; x64) AppleWebKit/537.36 (KHTML, like Gecko) Chrome/119.0.0.0 Safari/537.36" etag="7g-g5MPrAd67GPHcpkR2" version="22.0.8" type="device">
  <diagram name="Page-1" id="e7e014a7-5840-1c2e-5031-d8a46d1fe8dd">
    <mxGraphModel dx="1434" dy="833" grid="1" gridSize="10" guides="1" tooltips="1" connect="1" arrows="1" fold="1" page="1" pageScale="1" pageWidth="1169" pageHeight="826" background="none" math="0" shadow="0">
      <root>
        <mxCell id="0" />
        <mxCell id="1" parent="0" />
        <mxCell id="g4AIVwZiYFkUBo2pcc6z-64" value="" style="group" vertex="1" connectable="0" parent="1">
          <mxGeometry y="10" width="1160" height="810" as="geometry" />
        </mxCell>
        <mxCell id="2" value="User/siswa" style="swimlane;whiteSpace=wrap;snapToPoint=0;" parent="g4AIVwZiYFkUBo2pcc6z-64" vertex="1">
          <mxGeometry x="10" width="444.27" height="810" as="geometry" />
        </mxCell>
        <mxCell id="5" value="" style="ellipse;shape=startState;fillColor=#000000;strokeColor=#ff0000;snapToPoint=0;" parent="2" vertex="1">
          <mxGeometry x="162.23776223776224" y="56.8421052631579" width="48.67132867132868" height="42.63157894736842" as="geometry" />
        </mxCell>
        <mxCell id="6" value="" style="edgeStyle=elbowEdgeStyle;elbow=horizontal;verticalAlign=bottom;endArrow=open;endSize=8;strokeColor=#FF0000;endFill=1;rounded=0;snapToPoint=0;" parent="2" source="5" edge="1">
          <mxGeometry x="162.23776223776224" y="56.8421052631579" as="geometry">
            <mxPoint x="187.3846153846154" y="156.31578947368422" as="targetPoint" />
          </mxGeometry>
        </mxCell>
        <mxCell id="g4AIVwZiYFkUBo2pcc6z-41" value="menekan link website yayasan" style="html=1;whiteSpace=wrap;snapToPoint=0;" vertex="1" parent="2">
          <mxGeometry x="106.26573426573428" y="159.15789473684214" width="178.46153846153845" height="71.05263157894738" as="geometry" />
        </mxCell>
        <mxCell id="g4AIVwZiYFkUBo2pcc6z-44" value="menekan tombol login" style="html=1;whiteSpace=wrap;snapToPoint=0;" vertex="1" parent="2">
          <mxGeometry x="106.26573426573428" y="255.78947368421055" width="178.46153846153845" height="71.05263157894738" as="geometry" />
        </mxCell>
        <mxCell id="g4AIVwZiYFkUBo2pcc6z-49" value="memasukan username &amp;amp; password" style="html=1;whiteSpace=wrap;snapToPoint=0;" vertex="1" parent="2">
          <mxGeometry x="106.26573426573428" y="426.3157894736842" width="178.46153846153845" height="71.05263157894738" as="geometry" />
        </mxCell>
        <mxCell id="3" value="sistem" style="swimlane;whiteSpace=wrap;snapToPoint=0;" parent="g4AIVwZiYFkUBo2pcc6z-64" vertex="1">
          <mxGeometry x="454.26573426573435" width="705.7342657342658" height="810.0000000000001" as="geometry" />
        </mxCell>
        <mxCell id="g4AIVwZiYFkUBo2pcc6z-42" value="menampilkan laman index" style="html=1;whiteSpace=wrap;snapToPoint=0;" vertex="1" parent="3">
          <mxGeometry x="138.71328671328672" y="159.15789473684214" width="178.46153846153845" height="71.05263157894738" as="geometry" />
        </mxCell>
        <mxCell id="g4AIVwZiYFkUBo2pcc6z-46" value="menampilkan form login" style="html=1;whiteSpace=wrap;snapToPoint=0;" vertex="1" parent="3">
          <mxGeometry x="138.71328671328672" y="341.05263157894734" width="178.46153846153845" height="71.05263157894738" as="geometry" />
        </mxCell>
        <mxCell id="g4AIVwZiYFkUBo2pcc6z-54" style="edgeStyle=orthogonalEdgeStyle;rounded=0;orthogonalLoop=1;jettySize=auto;html=1;exitX=1;exitY=0.5;exitDx=0;exitDy=0;snapToPoint=0;" edge="1" parent="3" source="g4AIVwZiYFkUBo2pcc6z-51" target="g4AIVwZiYFkUBo2pcc6z-53">
          <mxGeometry relative="1" as="geometry" />
        </mxCell>
        <mxCell id="g4AIVwZiYFkUBo2pcc6z-51" value="verifikasi username &amp;amp; password" style="html=1;whiteSpace=wrap;snapToPoint=0;" vertex="1" parent="3">
          <mxGeometry x="139.52447552447555" y="525.7894736842105" width="178.46153846153845" height="71.05263157894738" as="geometry" />
        </mxCell>
        <mxCell id="g4AIVwZiYFkUBo2pcc6z-56" style="edgeStyle=orthogonalEdgeStyle;rounded=0;orthogonalLoop=1;jettySize=auto;html=1;exitX=0.5;exitY=1;exitDx=0;exitDy=0;entryX=0.5;entryY=0;entryDx=0;entryDy=0;snapToPoint=0;" edge="1" parent="3" source="g4AIVwZiYFkUBo2pcc6z-53" target="g4AIVwZiYFkUBo2pcc6z-55">
          <mxGeometry relative="1" as="geometry" />
        </mxCell>
        <mxCell id="g4AIVwZiYFkUBo2pcc6z-59" style="edgeStyle=orthogonalEdgeStyle;rounded=0;orthogonalLoop=1;jettySize=auto;html=1;exitX=0.5;exitY=0;exitDx=0;exitDy=0;entryX=0.5;entryY=1;entryDx=0;entryDy=0;snapToPoint=0;" edge="1" parent="3" source="g4AIVwZiYFkUBo2pcc6z-53" target="g4AIVwZiYFkUBo2pcc6z-58">
          <mxGeometry relative="1" as="geometry" />
        </mxCell>
        <mxCell id="g4AIVwZiYFkUBo2pcc6z-53" value="" style="rhombus;whiteSpace=wrap;html=1;snapToPoint=0;" vertex="1" parent="3">
          <mxGeometry x="429.9300699300699" y="532.8947368421053" width="64.8951048951049" height="56.8421052631579" as="geometry" />
        </mxCell>
        <mxCell id="g4AIVwZiYFkUBo2pcc6z-63" style="edgeStyle=orthogonalEdgeStyle;rounded=0;orthogonalLoop=1;jettySize=auto;html=1;exitX=0;exitY=0.5;exitDx=0;exitDy=0;entryX=1;entryY=0.5;entryDx=0;entryDy=0;snapToPoint=0;" edge="1" parent="3" source="g4AIVwZiYFkUBo2pcc6z-55" target="g4AIVwZiYFkUBo2pcc6z-62">
          <mxGeometry relative="1" as="geometry" />
        </mxCell>
        <mxCell id="g4AIVwZiYFkUBo2pcc6z-55" value="Menampilkan Menu utama" style="html=1;whiteSpace=wrap;snapToPoint=0;" vertex="1" parent="3">
          <mxGeometry x="373.1468531468532" y="665.0526315789474" width="178.46153846153845" height="71.05263157894738" as="geometry" />
        </mxCell>
        <mxCell id="g4AIVwZiYFkUBo2pcc6z-60" style="edgeStyle=orthogonalEdgeStyle;rounded=0;orthogonalLoop=1;jettySize=auto;html=1;exitX=0.5;exitY=0;exitDx=0;exitDy=0;entryX=1;entryY=0.5;entryDx=0;entryDy=0;snapToPoint=0;" edge="1" parent="3" source="g4AIVwZiYFkUBo2pcc6z-58" target="g4AIVwZiYFkUBo2pcc6z-46">
          <mxGeometry relative="1" as="geometry" />
        </mxCell>
        <mxCell id="g4AIVwZiYFkUBo2pcc6z-58" value="menampilkan error" style="html=1;whiteSpace=wrap;snapToPoint=0;" vertex="1" parent="3">
          <mxGeometry x="373.1468531468532" y="405.00000000000006" width="178.46153846153845" height="71.05263157894738" as="geometry" />
        </mxCell>
        <mxCell id="g4AIVwZiYFkUBo2pcc6z-62" value="" style="ellipse;html=1;shape=endState;fillColor=#000000;strokeColor=#ff0000;snapToPoint=0;" vertex="1" parent="3">
          <mxGeometry x="73.00699300699301" y="679.2631578947369" width="48.67132867132868" height="42.63157894736842" as="geometry" />
        </mxCell>
        <mxCell id="g4AIVwZiYFkUBo2pcc6z-43" style="edgeStyle=orthogonalEdgeStyle;rounded=0;orthogonalLoop=1;jettySize=auto;html=1;exitX=1;exitY=0.5;exitDx=0;exitDy=0;snapToPoint=0;" edge="1" parent="g4AIVwZiYFkUBo2pcc6z-64" source="g4AIVwZiYFkUBo2pcc6z-41" target="g4AIVwZiYFkUBo2pcc6z-42">
          <mxGeometry relative="1" as="geometry" />
        </mxCell>
        <mxCell id="g4AIVwZiYFkUBo2pcc6z-45" style="edgeStyle=orthogonalEdgeStyle;rounded=0;orthogonalLoop=1;jettySize=auto;html=1;exitX=0.5;exitY=1;exitDx=0;exitDy=0;entryX=1;entryY=0.5;entryDx=0;entryDy=0;snapToPoint=0;" edge="1" parent="g4AIVwZiYFkUBo2pcc6z-64" source="g4AIVwZiYFkUBo2pcc6z-42" target="g4AIVwZiYFkUBo2pcc6z-44">
          <mxGeometry relative="1" as="geometry" />
        </mxCell>
        <mxCell id="g4AIVwZiYFkUBo2pcc6z-47" style="edgeStyle=orthogonalEdgeStyle;rounded=0;orthogonalLoop=1;jettySize=auto;html=1;exitX=0.5;exitY=1;exitDx=0;exitDy=0;entryX=0;entryY=0.5;entryDx=0;entryDy=0;snapToPoint=0;" edge="1" parent="g4AIVwZiYFkUBo2pcc6z-64" source="g4AIVwZiYFkUBo2pcc6z-44" target="g4AIVwZiYFkUBo2pcc6z-46">
          <mxGeometry relative="1" as="geometry" />
        </mxCell>
        <mxCell id="g4AIVwZiYFkUBo2pcc6z-50" style="edgeStyle=orthogonalEdgeStyle;rounded=0;orthogonalLoop=1;jettySize=auto;html=1;exitX=0.5;exitY=1;exitDx=0;exitDy=0;entryX=1;entryY=0.5;entryDx=0;entryDy=0;snapToPoint=0;" edge="1" parent="g4AIVwZiYFkUBo2pcc6z-64" source="g4AIVwZiYFkUBo2pcc6z-46" target="g4AIVwZiYFkUBo2pcc6z-49">
          <mxGeometry relative="1" as="geometry" />
        </mxCell>
        <mxCell id="g4AIVwZiYFkUBo2pcc6z-52" style="edgeStyle=orthogonalEdgeStyle;rounded=0;orthogonalLoop=1;jettySize=auto;html=1;exitX=0.5;exitY=1;exitDx=0;exitDy=0;entryX=0;entryY=0.5;entryDx=0;entryDy=0;snapToPoint=0;" edge="1" parent="g4AIVwZiYFkUBo2pcc6z-64" source="g4AIVwZiYFkUBo2pcc6z-49" target="g4AIVwZiYFkUBo2pcc6z-51">
          <mxGeometry relative="1" as="geometry" />
        </mxCell>
        <mxCell id="g4AIVwZiYFkUBo2pcc6z-57" value="yes" style="text;html=1;align=center;verticalAlign=middle;resizable=0;points=[];autosize=1;strokeColor=none;fillColor=none;snapToPoint=0;" vertex="1" parent="g4AIVwZiYFkUBo2pcc6z-64">
          <mxGeometry x="867.9720279720281" y="608.2105263157895" width="40" height="30" as="geometry" />
        </mxCell>
        <mxCell id="g4AIVwZiYFkUBo2pcc6z-61" value="no" style="text;html=1;align=center;verticalAlign=middle;resizable=0;points=[];autosize=1;strokeColor=none;fillColor=none;snapToPoint=0;" vertex="1" parent="g4AIVwZiYFkUBo2pcc6z-64">
          <mxGeometry x="867.9720279720281" y="480.3157894736843" width="40" height="30" as="geometry" />
        </mxCell>
      </root>
    </mxGraphModel>
  </diagram>
</mxfile>
